<svg width="49" height="49" viewBox="0 0 49 49" fill="none" xmlns="http://www.w3.org/2000/svg">
<path d="M32.0667 22.7466C32.6333 22.7466 33.1083 22.5549 33.4917 22.1716C33.875 21.7882 34.0667 21.3132 34.0667 20.7466C34.0667 20.1799 33.875 19.7049 33.4917 19.3216C33.1083 18.9382 32.6333 18.7466 32.0667 18.7466C31.5 18.7466 31.025 18.9382 30.6417 19.3216C30.2583 19.7049 30.0667 20.1799 30.0667 20.7466C30.0667 21.3132 30.2583 21.7882 30.6417 22.1716C31.025 22.5549 31.5 22.7466 32.0667 22.7466ZM16.0667 17.7466H26.0667V14.7466H16.0667V17.7466ZM9.06668 42.7466C7.93335 38.9466 6.81668 35.1549 5.71668 31.3716C4.61668 27.5882 4.06668 23.7132 4.06668 19.7466C4.06668 16.6799 5.13335 14.0799 7.26668 11.9466C9.40001 9.81325 12 8.74658 15.0667 8.74658H25.0667C26.0333 7.47992 27.2083 6.49658 28.5917 5.79658C29.975 5.09658 31.4667 4.74658 33.0667 4.74658C33.9 4.74658 34.6083 5.03825 35.1917 5.62158C35.775 6.20492 36.0667 6.91325 36.0667 7.74658C36.0667 7.94658 36.0417 8.14658 35.9917 8.34658C35.9417 8.54658 35.8833 8.72992 35.8167 8.89658C35.6833 9.26325 35.5583 9.63825 35.4417 10.0216C35.325 10.4049 35.2333 10.7966 35.1667 11.1966L39.7167 15.7466H44.0667V29.6966L38.4167 31.5466L35.0667 42.7466H24.0667V38.7466H20.0667V42.7466H9.06668ZM11.3167 39.7466H17.0667V35.7466H27.0667V39.7466H32.8167L35.9667 29.2466L41.0667 27.4966V18.7466H38.4667L32.0667 12.3466C32.1 11.5132 32.2083 10.7049 32.3917 9.92158C32.575 9.13825 32.7667 8.34658 32.9667 7.54658C31.7 7.87992 30.5 8.37158 29.3667 9.02158C28.2333 9.67158 27.3667 10.5799 26.7667 11.7466H15.0667C12.8571 11.7466 10.9714 12.5275 9.40953 14.0894C7.84763 15.6513 7.06668 17.537 7.06668 19.7466C7.06668 23.1852 7.55001 26.5448 8.51668 29.8255C9.48335 33.1062 10.4167 36.4132 11.3167 39.7466Z" fill="#016C7A"/>
</svg>
