<svg width="49" height="49" viewBox="0 0 49 49" fill="none" xmlns="http://www.w3.org/2000/svg">
<path d="M5.05001 36.2966L2.60001 34.4966L12 19.4966L17.9786 26.4966L25.95 13.5966L31.4 21.6966C30.8667 21.7632 30.35 21.8716 29.85 22.0216C29.35 22.1716 28.85 22.3466 28.35 22.5466L26.1 19.0966L18.4722 31.5466L12.4 24.4966L5.05001 36.2966ZM44.45 46.7466L37.75 40.0466C37.05 40.5466 36.2917 40.9299 35.475 41.1966C34.6583 41.4632 33.8167 41.5966 32.95 41.5966C30.5889 41.5966 28.582 40.7696 26.9292 39.1157C25.2764 37.4618 24.45 35.4534 24.45 33.0907C24.45 30.7279 25.277 28.7216 26.9309 27.0716C28.5848 25.4216 30.5931 24.5966 32.9559 24.5966C35.3186 24.5966 37.325 25.423 38.975 27.0757C40.625 28.7285 41.45 30.7355 41.45 33.0966C41.45 33.9632 41.3083 34.8049 41.025 35.6216C40.7417 36.4382 40.3667 37.2207 39.9 37.969L46.6 44.5966L44.45 46.7466ZM32.943 38.5966C34.481 38.5966 35.7833 38.0656 36.85 37.0036C37.9167 35.9417 38.45 34.6417 38.45 33.1036C38.45 31.5656 37.919 30.2632 36.8571 29.1966C35.7951 28.1299 34.4951 27.5966 32.9571 27.5966C31.419 27.5966 30.1167 28.1276 29.05 29.1895C27.9833 30.2515 27.45 31.5515 27.45 33.0895C27.45 34.6276 27.981 35.9299 29.043 36.9966C30.1049 38.0632 31.4049 38.5966 32.943 38.5966ZM36.65 22.1966C36.15 21.9966 35.6333 21.8632 35.1 21.7966C34.5667 21.7299 34.0167 21.6632 33.45 21.5966L44.15 4.74658L46.6 6.54658L36.65 22.1966Z" fill="#016C7A"/>
</svg>
